
<svg xmlns="http://www.w3.org/2000/svg" viewBox="0 0 1000 600">
  <!-- Background -->
  <rect width="1000" height="600" fill="#f5f5f5"/>
  
  <!-- Header -->
  <rect width="1000" height="60" fill="#232f3e"/>
  <text x="20" y="40" font-size="24" font-weight="bold" fill="white">AWS SageMaker - Processing Job</text>
  
  <!-- Status Bar -->
  <rect y="60" width="1000" height="50" fill="#e8f4f8"/>
  <text x="20" y="95" font-size="14" font-weight="bold" fill="#0073bb">Job Name: fraud-detection-preprocessing-20251021-224642</text>
  
  <!-- Status -->
  <rect x="20" y="120" width="300" height="450" fill="white" stroke="#ddd" stroke-width="1"/>
  <text x="30" y="145" font-size="14" font-weight="bold" fill="#232f3e">Job Status</text>
  
  <rect x="30" y="160" width="280" height="30" rx="4" fill="#d4edda"/>
  <text x="40" y="180" font-size="13" fill="#155724">✓ Completed</text>
  
  <text x="30" y="220" font-size="12" fill="#666">Instance Type:</text>
  <text x="30" y="240" font-size="12" fill="#232f3e" font-weight="bold">ml.m5.4xlarge</text>
  
  <text x="30" y="270" font-size="12" fill="#666">Duration:</text>
  <text x="30" y="290" font-size="12" fill="#232f3e" font-weight="bold">16m 18s</text>
  
  <text x="30" y="320" font-size="12" fill="#666">Data Output:</text>
  <text x="30" y="340" font-size="12" fill="#232f3e" font-weight="bold">~8.0 GB</text>
  
  <text x="30" y="370" font-size="12" fill="#666">Status:</text>
  <text x="30" y="390" font-size="11" fill="#666">Created edges and nodes</text>
  <text x="30" y="405" font-size="11" fill="#666">Bipartite graph structure</text>
  <text x="30" y="420" font-size="11" fill="#666">Train/test split 70/30</text>
  
  <!-- Output Files -->
  <rect x="340" y="120" width="630" height="450" fill="white" stroke="#ddd" stroke-width="1"/>
  <text x="350" y="145" font-size="14" font-weight="bold" fill="#232f3e">Output Files Generated</text>
  
  <line x1="350" y1="155" x2="960" y2="155" stroke="#ddd" stroke-width="1"/>
  
  <!-- Table Header -->
  <text x="360" y="180" font-size="11" font-weight="bold" fill="#232f3e">File Path</text>
  <text x="750" y="180" font-size="11" font-weight="bold" fill="#232f3e">Size</text>
  
  <!-- Table Rows -->
  <text x="360" y="210" font-size="10" fill="#666">gnn/train_gnn/edges/node_to_node.csv</text>
  <text x="750" y="210" font-size="10" fill="#666">26.1 MB</text>
  
  <text x="360" y="235" font-size="10" fill="#666">gnn/train_gnn/nodes/node.csv</text>
  <text x="750" y="235" font-size="10" fill="#666">2.42 GB</text>
  
  <text x="360" y="260" font-size="10" fill="#666">gnn/train_gnn/nodes/node_label.csv</text>
  <text x="750" y="260" font-size="10" fill="#666">827 KB</text>
  
  <text x="360" y="285" font-size="10" fill="#666">gnn/test/edges/node_to_node.csv</text>
  <text x="750" y="285" font-size="10" fill="#666">10.8 MB</text>
  
  <text x="360" y="310" font-size="10" fill="#666">gnn/test/nodes/node.csv</text>
  <text x="750" y="310" font-size="10" fill="#666">1.04 GB</text>
  
  <text x="360" y="335" font-size="10" fill="#666">xgb/training.csv</text>
  <text x="750" y="335" font-size="10" fill="#666">2.42 GB</text>
  
  <text x="360" y="360" font-size="10" fill="#666">xgb/test.csv</text>
  <text x="750" y="360" font-size="10" fill="#666">1.04 GB</text>
  
  <text x="360" y="385" font-size="10" fill="#666">xgb/feature_info.json</text>
  <text x="750" y="385" font-size="10" fill="#666">9.6 KB</text>
  
  <line x1="350" y1="400" x2="960" y2="400" stroke="#ddd" stroke-width="1"/>
  
  <!-- Stats -->
  <text x="360" y="430" font-size="12" fill="#666">Total Files: 10</text>
  <text x="360" y="450" font-size="12" fill="#666">Total Size: 8.0 GB</text>
  <text x="360" y="470" font-size="12" fill="#666">Verification: ✓ All files verified</text>
</svg>
