
<svg xmlns="http://www.w3.org/2000/svg" viewBox="0 0 1000 700">
  <!-- Background -->
  <rect width="1000" height="700" fill="#f5f5f5"/>
  
  <!-- Header -->
  <rect width="1000" height="60" fill="#232f3e"/>
  <text x="20" y="40" font-size="24" font-weight="bold" fill="white">AWS SageMaker - Training Job</text>
  
  <!-- Status Bar -->
  <rect y="60" width="1000" height="50" fill="#e8f4f8"/>
  <text x="20" y="95" font-size="14" font-weight="bold" fill="#0073bb">Job Name: fraud-detection-training-22-Oct-2025-01-13-49</text>
  
  <!-- Left Panel - Job Info -->
  <rect x="20" y="120" width="280" height="560" fill="white" stroke="#ddd" stroke-width="1"/>
  <text x="30" y="145" font-size="14" font-weight="bold" fill="#232f3e">Job Configuration</text>
  
  <text x="30" y="175" font-size="11" fill="#666">Status:</text>
  <rect x="30" y="185" width="250" height="25" rx="3" fill="#d4edda"/>
  <text x="40" y="203" font-size="12" fill="#155724">✓ InProgress (12m 00s)</text>
  
  <text x="30" y="230" font-size="11" fill="#666">Instance Type:</text>
  <text x="30" y="250" font-size="12" fill="#232f3e" font-weight="bold">ml.g5.xlarge</text>
  
  <text x="30" y="280" font-size="11" fill="#666">GPU:</text>
  <text x="30" y="300" font-size="12" fill="#232f3e" font-weight="bold">NVIDIA A10G (24GB)</text>
  
  <text x="30" y="330" font-size="11" fill="#666">Model:</text>
  <text x="30" y="350" font-size="12" fill="#232f3e" font-weight="bold">GraphSAGE_XGBoost</text>
  
  <text x="30" y="380" font-size="11" fill="#666">Training Time:</text>
  <text x="30" y="400" font-size="12" fill="#232f3e" font-weight="bold">~12 minutes</text>
  
  <text x="30" y="430" font-size="11" fill="#666">Output:</text>
  <text x="30" y="450" font-size="11" fill="#666">model.tar.gz</text>
  <text x="30" y="465" font-size="11" fill="#666">(257 MB)</text>
  
  <!-- Right Panel - Metrics -->
  <rect x="320" y="120" width="660" height="560" fill="white" stroke="#ddd" stroke-width="1"/>
  <text x="330" y="145" font-size="14" font-weight="bold" fill="#232f3e">Training Metrics</text>
  
  <!-- GPU Utilization Chart -->
  <rect x="330" y="160" width="320" height="150" fill="#f9f9f9" stroke="#e0e0e0" stroke-width="1" rx="3"/>
  <text x="340" y="180" font-size="12" font-weight="bold" fill="#232f3e">GPU Utilization</text>
  
  <!-- Bars -->
  <rect x="345" y="200" width="20" height="90" fill="#0073bb"/>
  <rect x="370" y="195" width="20" height="95" fill="#0073bb"/>
  <rect x="395" y="185" width="20" height="105" fill="#0073bb"/>
  <rect x="420" y="180" width="20" height="110" fill="#0073bb"/>
  <rect x="445" y="175" width="20" height="115" fill="#0073bb"/>
  <rect x="470" y="172" width="20" height="118" fill="#0073bb"/>
  <rect x="495" y="170" width="20" height="120" fill="#0073bb"/>
  <text x="570" y="260" font-size="11" fill="#666">85-92% avg utilization</text>
  
  <!-- Loss Chart -->
  <rect x="660" y="160" width="320" height="150" fill="#f9f9f9" stroke="#e0e0e0" stroke-width="1" rx="3"/>
  <text x="670" y="180" font-size="12" font-weight="bold" fill="#232f3e">Training Loss</text>
  
  <!-- Line chart representation -->
  <polyline points="680,250 700,235 720,220 740,200 760,180 780,165 800,155 820,148 840,145 860,143" 
            stroke="#ff6b35" stroke-width="2" fill="none"/>
  <text x="800" y="270" font-size="11" fill="#666">Epoch 18/20</text>
  
  <!-- Hyperparameters -->
  <rect x="330" y="330" width="650" height="330" fill="#f9f9f9" stroke="#e0e0e0" stroke-width="1" rx="3"/>
  <text x="340" y="355" font-size="12" font-weight="bold" fill="#232f3e">Model Configuration</text>
  
  <text x="350" y="385" font-size="11" font-weight="bold" fill="#232f3e">GNN Parameters:</text>
  <text x="360" y="405" font-size="10" fill="#666">• hidden_channels: 32</text>
  <text x="360" y="422" font-size="10" fill="#666">• n_hops: 2</text>
  <text x="360" y="439" font-size="10" fill="#666">• dropout_prob: 0.2</text>
  <text x="360" y="456" font-size="10" fill="#666">• batch_size: 1024</text>
  <text x="360" y="473" font-size="10" fill="#666">• num_epochs: 20</text>
  
  <text x="600" y="385" font-size="11" font-weight="bold" fill="#232f3e">XGBoost Parameters:</text>
  <text x="610" y="405" font-size="10" fill="#666">• max_depth: 8</text>
  <text x="610" y="422" font-size="10" fill="#666">• learning_rate: 0.1</text>
  <text x="610" y="439" font-size="10" fill="#666">• num_boost_round: 1000</text>
  <text x="610" y="456" font-size="10" fill="#666">• gamma: 1.0</text>
  <text x="610" y="473" font-size="10" fill="#666">• scale_pos_weight: 27.43</text>
  
  <!-- Data Info -->
  <text x="350" y="510" font-size="11" font-weight="bold" fill="#232f3e">Input Data:</text>
  <text x="360" y="530" font-size="10" fill="#666">Training Nodes: 414,378</text>
  <text x="360" y="547" font-size="10" fill="#666">Test Nodes: 176,162</text>
  <text x="360" y="564" font-size="10" fill="#666">Total Edges: 2.5M (train) + 1.0M (test)</text>
  <text x="360" y="581" font-size="10" fill="#666">Feature Dimensions: 434</text>
  <text x="360" y="598" font-size="10" fill="#666">Fraud Rate: 3.5% (imbalanced)</text>
  
  <text x="600" y="510" font-size="11" font-weight="bold" fill="#232f3e">Output:</text>
  <text x="610" y="530" font-size="10" fill="#666">✓ ONNX models for Triton</text>
  <text x="610" y="547" font-size="10" fill="#666">✓ PyTorch backend models</text>
  <text x="610" y="564" font-size="10" fill="#666">✓ Training snapshot (metadata)</text>
  <text x="610" y="581" font-size="10" fill="#666">✓ Configuration archive</text>
</svg>
